# xmcd
#
# Track frame offsets:
# 150
# 15357
# 31732
# 46189
# 59367
# 71942
# 84150
# 94690
# 110460
# 122015
#
# Disc length: 1809 seconds
#
#
# Revision: 0
# Processed by: cddbd v1.5.2PL0 Copyright (c) Steve Scherf et al.
# Submitted via: Nero 7, 2, 3, 2 
#
DISCID=73070f0a
DTITLE=Country Dance Kings - Country Line Dancing 01
DYEAR=1999
DGENRE=Country
TTITLE0=Achy Breaky Heart
TTITLE1=No One Else On Earth
TTITLE2=Bubba Shot The Jukebox
TTITLE3=Papa Loved Mama
TTITLE4=I'm In A Murry (And Don't Know Why)
TTITLE5=What Part Of No
TTITLE6=One More Payment
TTITLE7=A Jukebox With A Country Song
TTITLE8=Whatcha Gonna Do With A Cowboy
TTITLE9=Boot Scootin' Boogie
EXTD=
EXTT0=
EXTT1=
EXTT2=
EXTT3=
EXTT4=
EXTT5=
EXTT6=
EXTT7=
EXTT8=
EXTT9=
PLAYORDER=
